/* XPM */
static char *_9214_fb3d3d9261041bb45d877d3af90e14d066992f08e456fc45d716dafccf6356e3[] = {
/* columns rows colors chars-per-pixel */
"64 64 224 2 ",
"   c #331F18",
".  c #162438",
"X  c #332F2E",
"o  c #67310E",
"O  c #4A2A20",
"+  c #723C20",
"@  c #4E4334",
"#  c #71542C",
"$  c #002C5C",
"%  c #003A65",
"&  c #002E71",
"*  c #255259",
"=  c #33504D",
"-  c #004370",
";  c #0E6B77",
":  c #405A6C",
">  c #516A7A",
",  c #9B3B00",
"<  c #8E3A00",
"1  c #92410F",
"2  c #AB4B00",
"3  c #AB4600",
"4  c #B64D00",
"5  c #AD5603",
"6  c #BD5300",
"7  c #B45502",
"8  c #BE5E11",
"9  c #B96500",
"0  c #B46410",
"q  c #81553F",
"w  c #D74C00",
"e  c #C85704",
"r  c #DA5300",
"t  c #DC5D00",
"y  c #D35703",
"u  c #C2570F",
"i  c #E45C00",
"p  c #C86909",
"a  c #DD6303",
"s  c #DA6505",
"d  c #CC7200",
"f  c #D57A00",
"g  c #DB7B00",
"h  c #D87305",
"j  c #CD6617",
"k  c #DC6719",
"l  c #C77619",
"z  c #E16A02",
"x  c #E66705",
"c  c #E57806",
"v  c #FB7607",
"b  c #EF7C13",
"n  c #D5702D",
"m  c #ED7221",
"M  c #BE8D25",
"N  c #DB8802",
"B  c #DF9204",
"V  c #CB8613",
"C  c #C98000",
"Z  c #ED8502",
"A  c #EC8C00",
"S  c #E58800",
"D  c #F28D03",
"F  c #FF8200",
"G  c #E69902",
"H  c #F39301",
"J  c #FC9400",
"K  c #FF9D01",
"L  c #F39A06",
"P  c #EB9615",
"I  c #DCAF0A",
"U  c #E9A907",
"Y  c #F3A402",
"T  c #FEA302",
"R  c #F4AB02",
"E  c #FEAB03",
"W  c #FEAA0C",
"Q  c #FDB303",
"!  c #FDBB01",
"~  c #FDB508",
"^  c #FCBB0A",
"/  c #F4B908",
"(  c #EAA71C",
")  c #F4A617",
"_  c #FEB213",
"`  c #FFBE12",
"'  c #FFBB1D",
"]  c #FEB51D",
"[  c #D68432",
"{  c #EF8E2F",
"}  c #FEB52A",
"|  c #FABB36",
" . c #F3AC2D",
".. c #FCC400",
"X. c #FCCC00",
"o. c #FCC50C",
"O. c #FECB0D",
"+. c #F5C70C",
"@. c #FBD200",
"#. c #FFDB02",
"$. c #FED30E",
"%. c #FEC916",
"&. c #FDD519",
"*. c #FFE302",
"=. c #FEC625",
"-. c #FFCA2D",
";. c #FECA26",
":. c #FEDA2C",
">. c #FED727",
",. c #FEC834",
"<. c #FEDA39",
"1. c #FFE529",
"2. c #FFE936",
"3. c #A4BC44",
"4. c #E6934A",
"5. c #F19550",
"6. c #FFA941",
"7. c #FABB43",
"8. c #EEA558",
"9. c #F9A857",
"0. c #F8BF55",
"q. c #E8A146",
"w. c #F6BF6C",
"e. c #BAC84E",
"r. c #FDCC45",
"t. c #FFD443",
"y. c #FFDA49",
"u. c #FDC553",
"i. c #FEC85A",
"p. c #FED758",
"a. c #FEE64A",
"s. c #FDE553",
"d. c #FFF34C",
"f. c #FCC865",
"g. c #FED86A",
"h. c #FEC577",
"j. c #FDD878",
"k. c #FFE664",
"l. c #FDE879",
"z. c #FFF57D",
"x. c #003C88",
"c. c #005289",
"v. c #0056AE",
"b. c #005DB2",
"n. c #006BBB",
"m. c #0064B6",
"M. c #0373BB",
"N. c #1474BD",
"B. c #12739A",
"V. c #006BC1",
"C. c #0779C7",
"Z. c #177DC2",
"A. c #007ED7",
"S. c #217AC1",
"D. c #00819D",
"F. c #038DBC",
"G. c #0484B7",
"H. c #0691BE",
"J. c #4F808A",
"K. c #018AC2",
"L. c #1987C7",
"P. c #0594C5",
"I. c #0996C5",
"U. c #019BCC",
"Y. c #0D9CCB",
"T. c #0596C8",
"R. c #0086D5",
"E. c #019CD4",
"W. c #139DCB",
"Q. c #3A9ACF",
"!. c #2D93C9",
"~. c #0DA5D4",
"^. c #02A4D9",
"/. c #04A8D9",
"(. c #11A4D3",
"). c #13A8D6",
"_. c #15ACD9",
"`. c #18A9D8",
"'. c #19B2DD",
"]. c #2BAAD3",
"[. c #3BA3D4",
"{. c #3AB3D8",
"}. c #24B1D7",
"|. c #008FE9",
" X c #18BAE9",
".X c #00AAF5",
"XX c #03B1EB",
"oX c #3EBAE2",
"OX c #54B9DB",
"+X c #48AAD4",
"@X c #63BFDE",
"#X c #56BFE2",
"$X c #40B8E0",
"%X c #18C3F3",
"&X c #1CC0EF",
"*X c #2BC4E7",
"=X c #37CBEC",
"-X c #2BD9FF",
";X c #3DE3FF",
":X c #59C0DE",
">X c #44C5E6",
",X c #64C6E5",
"<X c #7AD9F2",
"1X c #76CDE5",
"2X c #5BE7FA",
"3X c #4CFBFF",
"4X c #79ECFC",
"5X c #FFBA87",
"6X c #FEDB85",
"7X c #FEDC98",
"8X c #FDE388",
"9X c #FDEA96",
"0X c #FFF789",
"qX c #FEE9A4",
"wX c #FEF3A9",
"eX c #FEEAB6",
"rX c #FFFDBF",
"tX c #83D1E7",
"yX c #FEFBC9",
"uX c #FFF6D6",
"iX c #FFE8C0",
"pX c #FFFFF7",
"aX c #FFF6E3",
"sX c None",
/* pixels */
"sXsXsXsXsXsXsXsXsXsXsXsXsXsXsXsXsXsXsXsXsXsXsXsXsXsXsXsXsXsXsXsXsXsXsXsXsXsXsXsXsXsXsXsXsXsXsXsXsXsXsXsXsXsXsXsXsXsXsXsXsXsXsXsX",
"sXsXsXsXsXsXsXsXsXsXsXsXsXsXsXsXsXsXsXsXsXsXsXsXsXsXsXsXsXsXsXsXsXsXsXsXsXsXsXsXsXsXsXsXsXsXsXsXsXsXsXsXsXsXsXsXsXsXsXsXsXsXsXsX",
"sXsXsXsXsXsXsXsXsXsXsXsXsXsXsXsXsXsXsXsXsXsXsXsXsXsXsXsXsXsXsXsXsXsXsXsXsXsXsXsXsXsXsXsXsXsXsXsXsXsXsXsXsXsXsXsXsXsXsXsXsXsXsXsX",
"sXsXsXsXsXsXsXsXsXsXsXsXsXsXsXsXsXsXsXsXsXsXsXsXsXsXsXsXsXsXsXsXsXsXsXsXsXsXsXsXsXsXsXsXsXsXsXsXsXsXsXsXsXsXsXsXsXsXsXsXsXsXsXsX",
"sXsXsXsXsXsXsXsXsXsXsXsXsXsXsXsXsXsXsXsXsXsXsXsXsXsXsXsXsXsXsXsXsXsXsXsXsXsXsXsXsXsXsXsXsXsXsXsXsXsXsXsXsXsXsXsXsXsXsXsXsXsXsXsX",
"sXsXsXsXsXsXsXsXsXsXsXsXsXsXsXsXsXsXsXsXsXsXsXsXsXsXsXsXsXsXD D H D Z sXsXsXsXsXsXsXsXsXsXsXsXsXsXsXsXsXsXsXsXsXsXsXsXsXsXsXsXsX",
"sXsXsXsXsXsXsXsXsXsXsXsXsXsXsXsXsXsXsXsXsXsXsXsXsXL T ~ ~ ~ ^ ^ ~ ^ ^ Q E E T H sXsXsXsXsXsXsXsXsXsXsXsXsXsXsXsXsXsXsXsXsXsXsXsX",
"sXsXsXsXsXsXsXsXsXsXsXsXsXsXsXsXsXsXsXsXsXsXL ~ ^ o.^ ~ ~ E ~ E E E W E E E E E E T D sXsXsXsXsXsXsXsXsXsXsXsXsXsXsXsXsXsXsXsXsX",
"sXsXsXsXsXsXsXsXsXsXsXsXsXsXsXsXsXsXsXsXY ^ o.^ ~ Q W ~ ~ Q W ~ E E E E E T T T E W ~ T c sXsXsXsXsXsXsXsXsXsXsXsXsXsXsXsXsXsXsX",
"sXsXsXsXsXsXsXsXsXsXsXsXsXsXsXsXsXsXL o.O.^ / ~ ~ ~ ~ ~ Q W Q R W E E W E T E T T T T T E H sXsXsXsXsXsXsXsXsXsXsXsXsXsXsXsXsXsX",
"sXsXsXsXsXsXsXsXsXsXsXsXsXsXsXsXsX~ O.^ ~ ^ ~ ~ ~ ~ Q Q W Q ~ E E E E E E E W E W T T T T E K sXsXsXsXsXsXsXsXsXsXsXsXsXsXsXsXsX",
"sXsXsXsXsXsXsXsXsXsXsXsXsXsXsXsXo.O.^ ^ ^ ~ ~ ~ ~ ~ ~ W ~ Q E Q ~ E W E E T T T T T T T T K E L sXsXsXsXsXsXsXsXsXsXsXsXsXsXsXsX",
"sXsXsXsXsXsXsXsXsXsXsXsXsXsXsXO.O.^ ^ / / ~ / ~ ~ ~ ~ ~ W Q E W E E E E E E E T T T T T T K K W D sXsXsXsXsXsXsXsXsXsXsXsXsXsXsX",
"sXsXsXsXsXsXsXsXsXsXsXsXsXsX$.%.^ ^ ^ ^ ^ ^ ~ ~ ~ Q ~ E Q ~ ~ E E W W E T W T E T T T T T K K K T c sXsXsXsXsXsXsXsXsXsXsXsXsXsX",
"sXsXsXsXsXsXsXsXsXsXsXsXsX%.,.^ ^ ^ ^ ~ ^ ~ ~ ~ ~ ~ ~ ~ Q E E W E E W E E E W T T T T T T K K K T J t sXsXsXsXsXsXsXsXsXsXsXsXsX",
"sXsXsXsXsXsXsXsXsXsXsXsXX.y.=.! ^ ^ ^ ^ ^ ^ ~ ~ ~ ~ ~ E Q Q E E R E E E E T T T T T T T T K T K K K c sXsXsXsXsXsXsXsXsXsXsXsXsX",
"sXsXsXsXsXsXsXsXsXsXsX! <.p.! ^ ^ ^ ^ ^ ^ ~ ~ Q Q E Q ~ ^ o.%.` ^ Q E K T T T T T T T T K T K K K E c sXsXsXsXsXsXsXsXsXsXsXsXsX",
"sXsXsXsXsXsXsXsXsXsXY &.6X,.! ^ ^ ^ / ~ Q Q ..;.t.i.p.f.h.h.h.h.w.w.f.i.r.=.E K T T T T T T K T K T D x sXsXsXsXsXsXsXsXsXsXsXsX",
"sXsXsXsXsXsXsXsXsXsX+.g.8Xt./ ! o.^ ! o.:.r.u.9.8.4.n n j y u y s k n 4.4.8.0.r.W K T T T K K K K T J t sXsXsXsXsXsXsXsXsXsXsXsX",
"sXsXsXsXsXsXsXsXsX/ y.8Xj.j.j.p.-.:.<.7.4.[ l e 3 , , , < sXsXsXsXsXsXt r r k 4.0.' K T T K K K K K J z sXsXsXsXsXsXsXsXsXsXsXsX",
"sXsXsXsXsXsXsXsXsX;.9X6X8X6Xp.y.<. .[ u 2 7 9 5 2 2 sXsXsXsXsXsXsXsXsXsXsXsXa w k 7._ K T K K K K T K z sXsXsXsXsXsXsXsXsXsXsXsX",
"sXsXsXsXsXsXsXsXR k.qX9Xg.:.&.( l 2 2 9 N g 6 6 6 sXsXsXsXsXsXsXsXsXsXsXsXsXsXsXr y  .W T K K T K K K z sXsXsXsXsXsXsXsXsXsXsXsX",
"sXsXsXsXsXsXsXsX+.wX9Xy.$.U l 3 5 d S E J e e sXsXsXsXsXsXsXsXsXsXsXsXsXsXsXsXsXsXr c W K T K K K K K s sXsXsXsXsXsXsXsXsXsXsXsX",
"sXsXsXsXsXsXsXsXk.eX>...V 2 7 f H T Q H 4 6 sXsXsXsXsXsXsXsXsXsXsXsXsXsXsXsXsXsXsXt c E T T K K K T J s sXsXsXsXsXsXsXsXsXsXsXsX",
"sXsXsXsXsXsXsX) 0X1.G 5 7 f J T T T J 6 2 s sXsXsXsXsXsXsXsXsXsXsXsXsXsXsXsXsXsXsXsXc E T K K T K T D sXsXsXsXsXsXsXsXsXsXsXsXsX",
"sXsXsXsXsXsXsX>.&.C 7 f K T T K K W p 3 s sXsXsXsXsXsXsXsXsXsXsXsXsXsXsXsXsXsXsXsXsXD E T K K K K W Z sXsXsXsXsXsXsXsXsXsXsXsXsX",
"sXsXsXsXsXsXsX+.C h T E K J K K K P 0 e x sXsXsXsXsXsXsXsXsXsXsXsXsXsXsXsXsXsXsXsXZ E T T K K K K W c sXsXsXsXsXsXsXsXsXsXsXsXsX",
"sXsXsXsXsXsXsXR J E T K K K K K J V p i sXsXsXsXsXsXsXsXsXsXsXsXsXsXsXsXsXsXsXsXD E T T T K T K T L sXsXsXsXsXsXsXsXsXsXsXsXsXsX",
"sXsXsXsXsXsXsXT T T T K T K K T g V h x sXsXsXsXsXsXsXsXsXsXsXsXsXsXsXsXsXsXsXT E T T T T K K J W Z sXsXsXsXsXsXsXsXsXsXsXsXsXsX",
"sXsXsXsXsXsXE W T T T K T T E H d ( b t sXsXsXsXsXsXsXsXsXsXsXsXsXsXsXsXW W T E T T T T K T K E P sXsXsXsXsXsXsXsXsXsXsXsXsXsXsX",
"sXsXsXsXsXsXE E W T E W W T E f N =.c t sXsXsXsXsXsXsXsXsXsXsXsXsX_ W E E T E W T T T T T K W ) sXsXsXsXsXsXsXsXsXsXsXsXsXsXsXsX",
"sXsXsXsXsXsXE E E E E E T Q L d J =.c y sXsXsXsXsXsXsXsXE E ] | u.| W W E E T T W T T T J K | sXsXsXsXsXsXsXsXsXsXsXsXsXsXsXsXsX",
"sXsXsXsXsXsX~ W E E ~ E E ~ N g L } P r sXsXsXj.r._ _ | f.7XeXeXqX_ K T E E W T T K J K } sXsXsXsXsXsXsXsXsXsXsXsXsXsXsXsXsXsXsX",
"sXsXsXsXsXsX~ ~ ~ ~ E E ~ ~ f Z J -.( w sXsXsXsXsXsX9X6Xj.j.f.u.u.7.] T T K K K K W | sXsXsXsXsXsXsXsXsXsXsXsXsXsXsXsXsXsXsXsXsX",
"sXsXsXsXsXsX^ ~ ~ ~ ~ ~ ~ T f H J %.| w sXsXsXsXsXsXsXsXsXsXsXj.f.f.u.r.} } | t.sXsXsXsXsXsXsXsXsXsXsXsXsXsXsXsXsXsXsXsXsXsXsXsX",
"sXsXsXsXsXsXsX^ ~ / ~ ~ ^ U g K J W r.h sXsXsXsXsXsXsXsXsXsXsXsXsXsXsXsXsXsXsXsXsXsXsXsXsXsXsXsXsXsXsXsXsXsXsXsXsXsXsXsXsXsXsXsX",
"sXsXsXsXsXsXsX^ ^ ^ ^ ~ o.G g T K J y.{ w sXsXsXsXsXsXsXsXsXsXsXsXsXsXsXsXsXsXsXsXsXsXsXsXsXsXsXsXsXsXsXsXsXsXsXsXsXsXsXsXsXsXsX",
"sXsXsXsXsXsXsX^ ^ o.^ ^ O.S c T K J -.f.w sXsXsXsXsXsXsXsXsXsXsXsXsXsXsXsXsXV.n.M.C.L.L.L.N.L.N.sXsXsXsXsXsXsXsXsXsXsXsXsXsXsXsX",
"sXsXsXsXsXsXsX^ o.^ o.o.o.B A T T T Y l.{ sXsXsXsXsXsXsXsXsXsXsXsXsXsXsXsXsXsXn.M.L.[.$X>X,X,X:XOXOXOX+X+XQ.!.sXsXsXsXsXsXsXsXsX",
"sXsXsXsXsXsXsXo.o.o.o.o.O.B A E T T J t.6Xw sXsXsXsXsXsXsXsXsXsXsXsXsXsXsXsXsXsXsXn.m.m.`.>X,X<X1X:XOX{.W.W.I.H.F.F.sXsXsXsXsXsX",
"sXsXsXsXsXsXsXsXo.o.O.o.&.B A E T T T K 0X6.o sXsXsXsXsXsXsXsXsXsXsXsXsXsXsXsXsXsXsXb.S.,X/.~.{.:XtX@XW.I.P.P.K.K.sXsXsXsXsXsXsX",
"sXsXsXsXsXsXsXsXo.o.+.O.$.B A E E T E K } rXv X sXsXsXsXsXsXsXsXsXsXsXsXsXsXsXsXsXb.N.<X*X~.~.U.U.].].P.I.I.H.R.K.sXsXsXsXsXsXsX",
"sXsXsXsXsXsXsXsXsXo.O.%.$.B A E T E T E K p.yXi . sXsXsXsXsXsXsXsXsXsXsXsXsXsXsXv.N.<X=X^.`.).(.(.T.U.Y.T.I.R.A.e.sXsXsXsXsXsXsX",
"sXsXsXsXsXsXsXsXsXo.+.+.$.U A E E E E E E K 8XuXi . x.sXsXsXsXsXsXsXsXsXsXsXm.v.Q.4X=X^.'._.).).~.Y.Y.I.Y.R.A.e.sXsXsXsXsXsXsXsX",
"sXsXsXsXsXsXsXsXsXsXO.O.$.U A Q E E E E Q E K wXaXx   & % sXsXsXsXsXsXsXb.v.N.#X4X*X~.'._._.).~.(.Y.I.E.|.R.3.*.sXsXsXsXsXsXsXsX",
"sXsXsXsXsXsXsXsXsXsXo.o.O./ G E E E Q E Q Q E T qXpX{ o $ & % c.V.C.n.m.L.$X2X2X X_. X X_.).)._.).XX.XR.J.I *.sXsXsXsXsXsXsXsXsX",
"sXsXsXsXsXsXsXsXsXsXsXo.O.o.B R Q E Q Q ! Q Q Q T g.pX5Xe O % - c.G.*X3X3X3X-X%X%X%X&X X X X.X.X^.C.> V X.*.sXsXsXsXsXsXsXsXsXsX",
"sXsXsXsXsXsXsXsXsXsXsXo.+.$.U H Q Q E Q Q Q Q ! ! T ' yXiX5.u # * ; D.F.T.E.^./.^.^.^.E.E.G.B.: # h W *.*.@.sXsXsXsXsXsXsXsXsXsX",
"sXsXsXsXsXsXsXsXsXsXsXsX+.O./ G Q Q Q Q Q ! ! ! Q ! Q Q p.wX7X9.m 6 1 + O = * * * = = @ + 1 e F _ *.d.s.$.sXsXsXsXsXsXsXsXsXsXsX",
"sXsXsXsXsXsXsXsXsXsXsXsXsXO.$.U Y ! Q Q Q ! Q ! ! ! ! ! ! ! <.z.8Xf. .{ { x x s x x v F J Q @.*.2.9X9X&.sXsXsXsXsXsXsXsXsXsXsXsX",
"sXsXsXsXsXsXsXsXsXsXsXsXsXsX$./ U Q Q ! ! ! ! ! ! ! ! ....! ! ! X.2.d.s.y.t.<.,.;.;.>.2.2.2.s.l.uXwX@.sXsXsXsXsXsXsXsXsXsXsXsXsX",
"sXsXsXsXsXsXsXsXsXsXsXsXsXsXsX%.U R ! ! Q ! ! ! ..! ! ............^ ....@.@.@.@.#.@.@.:.l.wXwXyXl.@.sXsXsXsXsXsXsXsXsXsXsXsXsXsX",
"sXsXsXsXsXsXsXsXsXsXsXsXsXsXsXsXo.U ! ! ! ! ! ! ! ..................X.X.X.X.X.X.X.@.@.X.@.9XwXs.@.sXsXsXsXsXsXsXsXsXsXsXsXsXsXsX",
"sXsXsXsXsXsXsXsXsXsXsXsXsXsXsXsXsXo.R ! ..! ..! ..............X.X.X...X.X.X.@.X.@.@.@.@.<.l.>.@.sXsXsXsXsXsXsXsXsXsXsXsXsXsXsXsX",
"sXsXsXsXsXsXsXsXsXsXsXsXsXsXsXsXsXsXsX/ ! ..................X...X.X.X.X.@.@.@.@.@.@.$.<.a.@.sXsXsXsXsXsXsXsXsXsXsXsXsXsXsXsXsXsX",
"sXsXsXsXsXsXsXsXsXsXsXsXsXsXsXsXsXsXsXsXsX! ............X.X.X.X.X.X.X.@.@.@.@.@.@.#.&.&.sXsXsXsXsXsXsXsXsXsXsXsXsXsXsXsXsXsXsXsX",
"sXsXsXsXsXsXsXsXsXsXsXsXsXsXsXsXsXsXsXsXsXsXsX........X.X.X.X.X.X.X.X.@.@.@.@.@.@.#.sXsXsXsXsXsXsXsXsXsXsXsXsXsXsXsXsXsXsXsXsXsX",
"sXsXsXsXsXsXsXsXsXsXsXsXsXsXsXsXsXsXsXsXsXsXsXsXsXsXX.X.X.X.X.@.@.@.@.@.@.@.@.sXsXsXsXsXsXsXsXsXsXsXsXsXsXsXsXsXsXsXsXsXsXsXsXsX",
"sXsXsXsXsXsXsXsXsXsXsXsXsXsXsXsXsXsXsXsXsXsXsXsXsXsXsXsXsXsXsXsX@.sXsXsXsXsXsXsXsXsXsXsXsXsXsXsXsXsXsXsXsXsXsXsXsXsXsXsXsXsXsXsX",
"sXsXsXsXsXsXsXsXsXsXsXsXsXsXsXsXsXsXsXsXsXsXsXsXsXsXsXsXsXsXsXsXsXsXsXsXsXsXsXsXsXsXsXsXsXsXsXsXsXsXsXsXsXsXsXsXsXsXsXsXsXsXsXsX",
"sXsXsXsXsXsXsXsXsXsXsXsXsXsXsXsXsXsXsXsXsXsXsXsXsXsXsXsXsXsXsXsXsXsXsXsXsXsXsXsXsXsXsXsXsXsXsXsXsXsXsXsXsXsXsXsXsXsXsXsXsXsXsXsX",
"sXsXsXsXsXsXsXsXsXsXsXsXsXsXsXsXsXsXsXsXsXsXsXsXsXsXsXsXsXsXsXsXsXsXsXsXsXsXsXsXsXsXsXsXsXsXsXsXsXsXsXsXsXsXsXsXsXsXsXsXsXsXsXsX",
"sXsXsXsXsXsXsXsXsXsXsXsXsXsXsXsXsXsXsXsXsXsXsXsXsXsXsXsXsXsXsXsXsXsXsXsXsXsXsXsXsXsXsXsXsXsXsXsXsXsXsXsXsXsXsXsXsXsXsXsXsXsXsXsX",
"sXsXsXsXsXsXsXsXsXsXsXsXsXsXsXsXsXsXsXsXsXsXsXsXsXsXsXsXsXsXsXsXsXsXsXsXsXsXsXsXsXsXsXsXsXsXsXsXsXsXsXsXsXsXsXsXsXsXsXsXsXsXsXsX"
};
