/* XPM */
static char *_1374_20ba8d604f01ef56a8d52ff7a6d4123289474b7c0463ddd1bafe8e17c311ddc3[] = {
/* columns rows colors chars-per-pixel */
"16 16 100 2 ",
"   c #305073",
".  c #70665F",
"X  c #983302",
"o  c #DA6100",
"O  c #DB650C",
"+  c #DA7607",
"@  c #EC7D0A",
"#  c #AA9238",
"$  c #E98F08",
"%  c #F08500",
"&  c #FF8600",
"*  c #EC9000",
"=  c #F29707",
"-  c #FA9301",
";  c #F79C03",
":  c #F39A04",
">  c #F99A02",
",  c #FC9A00",
"<  c #FE9F00",
"1  c #E6981B",
"2  c #E89D1D",
"3  c #F3951C",
"4  c #F7A400",
"5  c #F7A601",
"6  c #FFA100",
"7  c #FFA001",
"8  c #FFA700",
"9  c #FFA402",
"0  c #FCA207",
"q  c #F4AD05",
"w  c #FFAA00",
"e  c #FFAB00",
"r  c #FEAE00",
"t  c #FFAE02",
"y  c #F9A805",
"u  c #FFA904",
"i  c #FFA909",
"p  c #F7B604",
"a  c #FFB300",
"s  c #FFB402",
"d  c #FFB104",
"f  c #FFB005",
"g  c #FFB105",
"h  c #FBBC02",
"j  c #FFBD00",
"k  c #FFB907",
"l  c #FFBC07",
"z  c #F4B70A",
"x  c #F9B209",
"c  c #F6BF0C",
"v  c #FFBF0C",
"b  c #EEA318",
"n  c #FCA814",
"m  c #F3B212",
"M  c #D48422",
"N  c #E28821",
"B  c #C0A135",
"V  c #F8B620",
"C  c #FFBF2C",
"Z  c #F2BB35",
"A  c #FDC100",
"S  c #FFC200",
"D  c #FDC400",
"F  c #FFC506",
"G  c #FFCA05",
"H  c #FFC309",
"J  c #FFC70B",
"K  c #FFCC0B",
"L  c #FEC90D",
"P  c #FBD000",
"I  c #FBD400",
"U  c #FFD400",
"Y  c #FFDE00",
"T  c #FFDF00",
"R  c #FDC21D",
"E  c #FDD010",
"W  c #FFDC14",
"Q  c #FFDA2D",
"!  c #FFC730",
"~  c #F8C53B",
"^  c #FFF023",
"/  c #81AC63",
"(  c #C39E40",
")  c #FFCD41",
"_  c #FFDD52",
"`  c #EFD869",
"'  c #064795",
"]  c #0676CA",
"[  c #007ED7",
"{  c #1782A6",
"}  c #0585DE",
"|  c #0098D8",
" . c #0097E8",
".. c #1A9FF0",
"X. c #0CAEF8",
"o. c #26BEEA",
"O. c #20C5F7",
"+. c #FFDF84",
"@. c #FFFFBE",
"#. c None",
/* pixels */
"#.#.#.#.#.#.#.#.#.#.#.#.#.#.#.#.",
"#.#.#.#.#.#.#.: y ; #.#.#.#.#.#.",
"#.#.#.#.#.x H l f g d > #.#.#.#.",
"#.#.#.#.K G F J v s 8 t - #.#.#.",
"#.#.#._ Q m 2 M N 3 n u 7 #.#.#.",
"#.#.~ ` 1 + X #.#.#.O 0 8 #.#.#.",
"#.#.b * % o #.#.#.#.#., 9 #.#.#.",
"#.#.6 8 $ #.#.#.#.e w a & #.#.#.",
"#.#.k 5 = #.#.@.+.C Z #.#.#.#.#.",
"#.#.L q i @ #.#.#.#.#.} ..#.#.#.",
"#.#.E z < R   #.#.#.] o.O. .#.#.",
"#.#.#.c 4 j ! . ' [ X.| { / #.#.",
"#.#.#.#.p r S W V B # ( ) #.#.#.",
"#.#.#.#.#.h A D U Y T ^ #.#.#.#.",
"#.#.#.#.#.#.#.#.P I #.#.#.#.#.#.",
"#.#.#.#.#.#.#.#.#.#.#.#.#.#.#.#."
};
