/* XPM */
static char *_6603_e124a8364f359bd770946b8b10b78b92ead4f7b4f85b18ce6455569e7a154481[] = {
/* columns rows colors chars-per-pixel */
"32 32 162 2 ",
"   c #151E43",
".  c #07284F",
"X  c #2D667D",
"o  c #35687E",
"O  c #63464C",
"+  c #696A4D",
"@  c #486973",
"#  c #47737B",
"$  c #6A7669",
"%  c #913000",
"&  c #AE4900",
"*  c #AA4100",
"=  c #BE5C0A",
"-  c #A07917",
";  c #C85500",
":  c #D85902",
">  c #C66702",
",  c #D46A05",
"<  c #C77A08",
"1  c #DD7900",
"2  c #DC691A",
"3  c #CE7B1B",
"4  c #DA771F",
"5  c #E47300",
"6  c #ED7D02",
"7  c #E77908",
"8  c #967652",
"9  c #678C6E",
"0  c #D8870C",
"q  c #D6960D",
"w  c #D1871F",
"e  c #EC8301",
"r  c #EE8B00",
"t  c #E68500",
"y  c #F08502",
"u  c #F28F00",
"i  c #F49502",
"p  c #FB9601",
"a  c #F39B04",
"s  c #FE9D01",
"d  c #F5960C",
"f  c #F09D0B",
"g  c #E78916",
"h  c #E29210",
"j  c #EDA507",
"k  c #EAA705",
"l  c #FEA402",
"z  c #F3AA05",
"x  c #FEAB03",
"c  c #FCA10E",
"v  c #F8A907",
"b  c #EEB009",
"n  c #FEB303",
"m  c #FDBB01",
"M  c #F3B50D",
"N  c #FDB609",
"B  c #F4BC0B",
"V  c #FDBB0A",
"C  c #EBA413",
"Z  c #FBA812",
"A  c #FFB513",
"S  c #FFB71B",
"D  c #FEBC1D",
"F  c #D88036",
"G  c #D78435",
"H  c #EF9825",
"J  c #E88933",
"K  c #E99735",
"L  c #F09C34",
"P  c #F1A32B",
"I  c #EAB426",
"U  c #FDBF28",
"Y  c #FAB12D",
"T  c #F4B132",
"R  c #FDC401",
"E  c #FCCB00",
"W  c #FDC30B",
"Q  c #FECB0E",
"!  c #F5C20D",
"~  c #FCD301",
"^  c #FFDF04",
"/  c #FFD10F",
"(  c #E0C511",
")  c #FEC314",
"_  c #FFCB14",
"`  c #FEC119",
"'  c #FFCF19",
"]  c #FFDE11",
"[  c #FFD71D",
"{  c #FBD712",
"}  c #FFE303",
"|  c #FFC029",
" . c #FFCA2E",
".. c #FFC923",
"X. c #FCDC24",
"o. c #FFD62C",
"O. c #FEC43B",
"+. c #FFDD35",
"@. c #FFD83A",
"#. c #FED239",
"$. c #FFE22C",
"%. c #F3B449",
"&. c #E1A150",
"*. c #C99F6C",
"=. c #C89B76",
"-. c #EBB87E",
";. c #AEC143",
":. c #FFC143",
">. c #FFEB4F",
",. c #FFE150",
"<. c #FFE458",
"1. c #F8E95B",
"2. c #FFDD64",
"3. c #FED069",
"4. c #FDD07A",
"5. c #FFE961",
"6. c #FFE171",
"7. c #FFFF7B",
"8. c #FFF47A",
"9. c #005EA5",
"0. c #076DBB",
"q. c #1579B9",
"w. c #0066C7",
"e. c #187DC2",
"r. c #007ED1",
"t. c #0482CF",
"y. c #008DC8",
"u. c #0F9DC8",
"i. c #109DC5",
"p. c #0087D1",
"a. c #008BDF",
"s. c #009ED0",
"d. c #3096CB",
"f. c #2D98D1",
"g. c #3C9ED0",
"h. c #0DAADA",
"j. c #13A8D6",
"k. c #1AB6DF",
"l. c #2AA0D7",
"z. c #0098E4",
"x. c #0090F7",
"c. c #00A8E6",
"v. c #00ADF7",
"b. c #00B6FB",
"n. c #4CA8D5",
"m. c #4DBCDB",
"M. c #55B2DB",
"N. c #47BDE4",
"B. c #03CBFF",
"V. c #18CBFF",
"C. c #22C3E9",
"Z. c #3FC5E6",
"A. c #26E5FF",
"S. c #48C7E4",
"D. c #4ACFEF",
"F. c #76D1E7",
"G. c #FFEE93",
"H. c #FFFE94",
"J. c #FEF4A8",
"K. c #FDE3B0",
"L. c #FDEAC6",
"P. c None",
/* pixels */
"P.P.P.P.P.P.P.P.P.P.P.P.P.P.P.P.P.P.P.P.P.P.P.P.P.P.P.P.P.P.P.P.",
"P.P.P.P.P.P.P.P.P.P.P.P.P.P.P.P.P.P.P.P.P.P.P.P.P.P.P.P.P.P.P.P.",
"P.P.P.P.P.P.P.P.P.P.P.P.P.P.P.P.P.P.P.P.P.P.P.P.P.P.P.P.P.P.P.P.",
"P.P.P.P.P.P.P.P.P.P.P.P.P.a v v v l a i P.P.P.P.P.P.P.P.P.P.P.P.",
"P.P.P.P.P.P.P.P.P.P.f N W V N N n x x n x i P.P.P.P.P.P.P.P.P.P.",
"P.P.P.P.P.P.P.P.P.V Q V N N n n x x v l x x x 5 P.P.P.P.P.P.P.P.",
"P.P.P.P.P.P.P.v Q W N N N n N v x x x v v l l x 5 P.P.P.P.P.P.P.",
"P.P.P.P.P.P.f [ R V N N n n x x x x v v l s s x p P.P.P.P.P.P.P.",
"P.P.P.P.P.P.+.) V n m R ' .. . .U U V x l l s l l 5 P.P.P.P.P.P.",
"P.P.P.P.P.#.2.` _ [ U T L G G F J K L Y A s l s l 6 P.P.P.P.P.P.",
"P.P.P.P.M G.G.,.I w 3 = * % P.P.P.P.P.2 H x s s l y P.P.P.P.P.P.",
"P.P.P.P.2.H.I < > 1 , & P.P.P.P.P.P.P.P.: d x s x y P.P.P.P.P.P.",
"P.P.P.P.1.q > 1 l r ; P.P.P.P.P.P.P.P.P.P.y x s l 6 P.P.P.P.P.P.",
"P.P.P.C k 5 s x a = P.P.P.P.P.P.P.P.P.P.P.l l l l P.P.P.P.P.P.P.",
"P.P.P.i s l l s 0 , P.P.P.P.P.P.P.P.P.P.l x s x d P.P.P.P.P.P.P.",
"P.P.P.x l x x u h 7 P.P.P.P.P.P.P.x v x l s s c P.P.P.P.P.P.P.P.",
"P.P.P.n x x x t Z 7 P.P.#.S O.3.:.l s s s x o.P.P.P.P.P.P.P.P.P.",
"P.P.P.N N N z t S g P.P.P.P.L.K.4.:... .P.P.P.P.P.P.P.P.P.P.P.P.",
"P.P.P.V V ) j r V P P.P.P.P.P.P.P.P.P.P.P.P.P.P.P.P.P.P.P.P.P.P.",
"P.P.P.W W Q j u l O.4 P.P.P.P.P.P.P.P.P.w.p.f.M.n.g.d.P.P.P.P.P.",
"P.P.P.P.W / k i l D %.P.P.P.P.P.P.P.P.P.P.t.N.S.F.m.u.y.r.P.P.P.",
"P.P.P.P.Q / b a x l @.*.P.P.P.P.P.P.P.P.q.m.k.s.j.u.a.p.P.P.P.P.",
"P.P.P.P.P./ b a x x x <.=.  P.P.P.P.0.f.D.C.j.k.c.x.p.;.P.P.P.P.",
"P.P.P.P.P.Q ! z x x x m 5.-.O . 9.z.V.A.B.b.v.z.q.9 ( P.P.P.P.P.",
"P.P.P.P.P.P._ b l m n n n +.2.&.8 $ # X o @ + - C ] } P.P.P.P.P.",
"P.P.P.P.P.P.P.B z m m m m n R $.o.S c d p l ) >.7.$.P.P.P.P.P.P.",
"P.P.P.P.P.P.P.P.B n m m R R R R R ~ ^ } } } 8.J.[ P.P.P.P.P.P.P.",
"P.P.P.P.P.P.P.P.P.m R R R R R E E ~ E ~ ~ { $.P.P.P.P.P.P.P.P.P.",
"P.P.P.P.P.P.P.P.P.P.P.R R E E E E ~ ~ ~ ~ P.P.P.P.P.P.P.P.P.P.P.",
"P.P.P.P.P.P.P.P.P.P.P.P.P.P.P.P.P.P.P.P.P.P.P.P.P.P.P.P.P.P.P.P.",
"P.P.P.P.P.P.P.P.P.P.P.P.P.P.P.P.P.P.P.P.P.P.P.P.P.P.P.P.P.P.P.P.",
"P.P.P.P.P.P.P.P.P.P.P.P.P.P.P.P.P.P.P.P.P.P.P.P.P.P.P.P.P.P.P.P."
};
